# AST/ASF file generated using VICON BodyLanguage
# -----------------------------------------------
:version 1.10
:name VICON
:units
  mass 1.0
  length 0.45
  angle deg
:documentation
   .ast/.asf automatically generated from VICON data using
   VICON BodyBuilder and BodyLanguage model FoxedUp or BRILLIANT.MOD
:root
   order TX TY TZ RX RY RZ
   axis XYZ
   position 0 0 0  
   orientation 0 0 0 
:bonedata
  begin
     id 1 
     name lhipjoint
     direction 0.734343 -0.627749 0.258209 
     length 2.5437 
     axis 0 0 0  XYZ
  end
  begin
     id 2 
     name lfemur
     direction 0.34202 -0.939693 0  
     length 6.7391  
     axis 0 0 20  XYZ
    dof rx ry rz
    limits (-160.0 20.0)
           (-70.0 70.0)
           (-60.0 70.0)
  end
  begin
     id 3 
     name ltibia
     direction 0.34202 -0.939693 0   
     length 7.21536   
     axis 0 0 20   XYZ
    dof rx
    limits (-10.0 170.0)
  end
  begin
     id 4 
     name lfoot
     direction 0.0489572 -0.134509 0.989702   
     length 1.61313   
     axis -90 7.62852e-016 20   XYZ
    dof rx rz
    limits (-45.0 90.0)
           (-70.0 20.0)
  end
  begin
     id 5 
     name ltoes
     direction 1.53451e-011 -4.21692e-011 1   
     length 0.823104   
     axis -90 7.62852e-016 20   XYZ
    dof rx
    limits (-90.0 20.0)
  end
  begin
     id 6 
     name rhipjoint
     direction -0.746398 -0.615468 0.253157   
     length 2.59446  
     axis 0 0 0  XYZ 
  end
  begin
     id 7 
     name rfemur
     direction -0.34202 -0.939693 0   
     length 6.7075   
     axis 0 0 -20   XYZ
    dof rx ry rz
    limits (-160.0 20.0)
           (-70.0 70.0)
           (-70.0 60.0)
  end
  begin
     id 8 
     name rtibia
     direction -0.34202 -0.939693 0   
     length 7.27262   
     axis 0 0 -20   XYZ
    dof rx
    limits (-10.0 170.0)
 end
 begin
     id 9 
     name rfoot
     direction -0.0455203 -0.125066 0.991104   
     length 1.91095  
     axis -90 -7.62852e-016 -20   XYZ
    dof rx rz
    limits (-45.0 90.0)
           (-20.0 70.0)
  end
  begin
     id 10 
     name rtoes
     direction -1.53601e-011 -4.21913e-011 1   
     length 0.969037   
     axis -90 -7.62852e-016 -20   XYZ
    dof rx
    limits (-90.0 20.0)
  end
  begin
     id 11 
     name lowerback
     direction 0.0181546 0.999122 -0.0377542   
     length 1.99916   
     axis 0 0 0   XYZ
    dof rx ry rz
    limits (-20.0 45.0)
           (-30.0 30.0)
           (-30.0 30.0)
  end
  begin
     id 12 
     name upperback
     direction 0.0203486 0.99589 0.0882534   
     length 1.951   
     axis 0 0 0   XYZ
    dof rx ry rz
    limits (-20.0 45.0)
           (-30.0 30.0)
           (-30.0 30.0)
  end
  begin
     id 13 
     name thorax
     direction 0.0131685 0.994241 0.106355   
     length 1.97461   
     axis 0 0 0   XYZ
    dof rx ry rz
    limits (-20.0 45.0)
           (-30.0 30.0)
           (-30.0 30.0)
  end
  begin
     id 14 
     name lowerneck
     direction -0.0281395 0.999325 0.023617   
     length 1.7959   
     axis 0 0 0   XYZ
    dof rx ry rz
    limits (-20.0 45.0)
           (-30.0 30.0)
           (-30.0 30.0)
  end
  begin
     id 15 
     name upperneck
     direction 0.0288721 0.991984 -0.123019   
     length 1.79917   
     axis 0 0 0   XYZ
    dof rx ry rz
    limits (-20.0 45.0)
           (-30.0 30.0)
           (-30.0 30.0)
  end
  begin
     id 16
     name head
     direction 0.0133797 0.998944 -0.0439492  
     length 1.80902  
     axis 0 0 0   XYZ
    dof rx ry rz
    limits (-20.0 45.0)
           (-30.0 30.0)
           (-30.0 30.0)
  end
  begin
     id 17 
     name lclavicle
     direction 0.919195 0.377107 0.113449  
     length 3.17815  
     axis 0 0 0   XYZ
    dof ry rz
    limits (-20.0 10.0)
           (0.0 20.0)
  end
  begin
     id 18 
     name lhumerus
     direction 1 -4.48959e-011 2.13129e-027   
     length 4.84137   
     axis 180 -30 -90   XYZ
    dof rx ry rz
    limits (-60.0 90.0)
           (-90.0 90.0)
           (-90.0 90.0)
  end
  begin
     id 19
     name lradius
     direction 1 -4.48957e-011 -6.30627e-028   
     length 3.2452   
     axis 180 -30 -90   XYZ
    dof rx
    limits (-10.0 170.0)
  end
  begin
     id 20
     name lwrist
     direction 1 -4.4901e-011 9.13299e-027   
     length 1.6226   
     axis -6.84618e-015 90 90   XYZ
    dof ry
    limits (-180.0 0.0)
 end
  begin
     id 21 
     name lhand
     direction 1 -4.48816e-011 1.82293e-026   
     length 0.521221   
     axis -1.16502e-014 90 90   XYZ
    dof rx rz
    limits (-90.0 90.0)
           (-45.0 45.0)
  end
  begin
     id 22 
     name lfingers
     direction 1 -4.49108e-011 3.65687e-026   
     length 0.420221   
     axis -2.33008e-014 90 90   XYZ
    dof rx
    limits (0.0 90.0)
  end
  begin
     id 23
     name lthumb
     direction 0.707107 -6.34943e-011 0.707107   
     length 0.603356   
     axis -90 45 5.69224e-014   XYZ
    dof rx rz
    limits (-45.0 45.0)
           (-45.0 45.0)
  end
  begin
     id 24 
     name rclavicle
     direction -0.90847 0.38596 0.160368   
     length 3.12973  
     axis 0 0 0   XYZ 
    dof ry rz
    limits (-10.0 20.0)
           (-20.0 0.0)
  end
  begin
     id 25 
     name rhumerus
     direction -1 -4.48974e-011 4.47268e-028  
     length 4.72284   
     axis 180 30 90   XYZ
    dof rx ry rz
    limits (-90.0 60.0)
           (-90.0 90.0)
           (-90.0 90.0)
  end
  begin
     id 26 
     name rradius
     direction -1 -4.48969e-011 3.43203e-027   
     length 3.23459   
     axis 180 30 90   XYZ
    dof rx
    limits (-10.0 170.0)
  end
  begin
     id 27 
     name rwrist
     direction -1 -4.48969e-011 9.12911e-027   
     length 1.6173   
     axis -6.84618e-015 -90 -90   XYZ
    dof ry
    limits (-180.0 0.0)
  end
  begin
     id 28
     name rhand
     direction -1 -4.49194e-011 1.83006e-026   
     length 0.307416   
     axis -1.16502e-014 -90 -90   XYZ
    dof rx rz
    limits (-90.0 90.0)
           (-45.0 45.0)
  end
  begin
     id 29
     name rfingers
     direction -1 -4.48423e-011 3.63103e-026   
     length 0.247847   
     axis -2.33008e-014 -90 -90   XYZ
    dof rx
    limits (0.0 90.0)
  end
  begin
     id 30
     name rthumb
     direction -0.707107 -6.34802e-011 0.707107   
     length 0.35586   
     axis -90 -45 -5.69224e-014   XYZ
    dof rx rz
    limits (-45.0 45.0)
           (-45.0 45.0)
  end
:hierarchy
  begin
    root lhipjoint rhipjoint lowerback
    lhipjoint lfemur
    lfemur ltibia
    ltibia lfoot
    lfoot ltoes
    rhipjoint rfemur
    rfemur rtibia
    rtibia rfoot
    rfoot rtoes
    lowerback upperback
    upperback thorax
    thorax lowerneck lclavicle rclavicle
    lowerneck upperneck
    upperneck head
    lclavicle lhumerus
    lhumerus lradius
    lradius lwrist
    lwrist lhand lthumb
    lhand lfingers
    rclavicle rhumerus
    rhumerus rradius
    rradius rwrist
    rwrist rhand rthumb
    rhand rfingers
  end

#!OML:ASF H:\Terrain\Patient Classification 1\Animal1\Tuesday\Animal1.ASF
:FULLY-SPECIFIED
:DEGREES
87
root 9.78565 16.3687 -17.0601 5.64902 1.02771 3.91387
lowerback 0.729164 0.014952 -0.679924
upperback 3.50355 0.0787637 -1.89938
thorax 3.1917 0.0508128 -1.57032
lowerneck -9.10502 1.55059 -6.55279
upperneck 5.84643 3.02982 -1.75512
head 3.44701 1.26607 0.750156
rclavicle -1.07468e-015 -1.83876e-015
rhumerus -12.1719 38.4387 -87.41
rradius 23.4622
rwrist -19.0638
rhand -19.711 23.1932
rfingers 7.12502
rthumb 6.61885 -6.68337
lclavicle -1.07468e-015 -1.83876e-015
lhumerus -20.8376 -30.6519 84.6182
lradius 28.6338
lwrist -23.9291
lhand 1.26506 42.849
lfingers 7.12502
lthumb 26.8015 70.97
rfemur -25.7752 16.8603 10.9868
rtibia 24.1407
rfoot -14.5313 -37.006
rtoes 22.231
lfemur -6.40626 -8.49612 -23.5571
ltibia 13.5218
lfoot -9.59349 19.3134
ltoes -5.11232
88
root 9.75267 16.349 -16.9928 5.51004 1.49711 3.82845
lowerback 0.821863 0.0141945 -0.458443
upperback 3.62136 0.0674706 -1.57498
thorax 3.26023 0.046757 -1.36102
lowerneck -9.31933 1.51605 -6.43495
upperneck 5.90244 3.02683 -2.21612
head 3.517 1.24329 0.580674
rclavicle 6.52262e-015 -1.05356e-014
rhumerus -11.9941 38.4804 -86.9853
rradius 23.326
rwrist -19.5624
rhand -19.3927 23.0417
rfingers 7.12502
rthumb 6.92613 -6.82498
lclavicle 6.52262e-015 -1.05356e-014
lhumerus -21.0046 -31.4453 84.9564
lradius 29.0775
lwrist -23.1265
lhand 1.50749 42.6913
lfingers 7.12502
lthumb 27.0335 70.7765
rfemur -25.4886 15.9885 11.4487
rtibia 24.6021
rfoot -13.1004 -36.8401
rtoes 19.7516
lfemur -7.18816 -7.59712 -23.3505
ltibia 15.5637
lfoot -9.92437 18.4146
ltoes -6.76617
89
root 9.71726 16.3385 -16.9253 5.3507 1.99748 3.8173
lowerback 0.944203 0.0175456 -0.316457
upperback 3.71061 0.0619496 -1.25895
thorax 3.28272 0.0432694 -1.11564
lowerneck -8.89104 1.52276 -6.47812
upperneck 5.44812 3.01714 -2.61939
head 3.28051 1.24018 0.443714
rclavicle 1.87355e-014 -5.76476e-015
rhumerus -11.8754 38.1937 -86.4856
rradius 23.223
rwrist -19.8318
rhand -19.1561 23.0873
rfingers 7.12502
rthumb 7.1545 -6.77177
lclavicle 1.87355e-014 -5.76476e-015
lhumerus -21.1017 -31.9479 85.2788
lradius 29.3838
lwrist -23.1817
lhand 2.29007 42.9674
lfingers 7.12502
lthumb 27.782 70.9342
rfemur -25.1312 15.0357 11.8611
rtibia 25.0044
rfoot -12.0154 -35.4359
rtoes 21.5417
lfemur -8.04489 -6.73951 -23.2206
ltibia 17.8215
lfoot -10.5982 17.5593
ltoes -6.96295
90
root 9.68566 16.3342 -16.8562 5.04563 2.54651 3.44638
lowerback 1.19107 0.00703865 0.342376
upperback 3.83145 0.0331913 -0.937473
thorax 3.26815 0.0437131 -1.15484
lowerneck -8.35917 1.52586 -6.83161
upperneck 5.04097 2.98848 -2.49039
head 3.03171 1.24392 0.534062
rclavicle -8.34896e-015 1.80894e-014
rhumerus -11.7777 37.356 -86.0711
rradius 23.1019
rwrist -19.4327
rhand -19.0067 23.278
rfingers 7.12502
rthumb 7.29868 -6.57607
lclavicle -8.34896e-015 1.80894e-014
lhumerus -21.2247 -32.3095 85.4794
lradius 29.6491
lwrist -23.3001
lhand 2.35744 43.351
lfingers 7.12502
lthumb 27.8464 71.3073
rfemur -24.5901 14.2498 12.6476
rtibia 25.3972
rfoot -11.4652 -34.6949
rtoes 21.9455
lfemur -8.74861 -5.81913 -22.726
ltibia 20.0963
lfoot -11.2415 16.7224
ltoes -8.83688
91
root 9.65284 16.3261 -16.7896 4.98783 3.04487 3.10653
lowerback 1.18908 -0.0225349 0.917801
upperback 3.9163 -0.0189549 -0.625836
thorax 3.35631 0.0308477 -1.15785
lowerneck -8.35731 1.51731 -7.22067
upperneck 5.063 2.99932 -2.16859
head 3.0301 1.25347 0.707759
rclavicle 4.57205e-015 -5.96354e-015
rhumerus -11.6477 36.5906 -85.7102
rradius 23.0023
rwrist -19.0093
rhand -19.0414 23.3625
rfingers 7.12502
rthumb 7.26515 -6.49275
lclavicle 4.57205e-015 -5.96354e-015
lhumerus -21.3457 -32.6125 85.6635
lradius 29.8731
lwrist -23.0792
lhand 1.5021 43.2564
lfingers 7.12502
lthumb 27.0283 71.3424
rfemur -24.3108 13.6376 13.2758
rtibia 25.6276
rfoot -11.3576 -34.1349
rtoes 23.111
lfemur -9.88105 -4.84055 -22.2349
ltibia 22.5585
lfoot -11.6191 15.9858
ltoes -12.0555
